<svg xmlns="http://www.w3.org/2000/svg" width="7.15" height="16" viewBox="0 0 7.15 16"><defs><style>.cls-1{fill:#cf5248;fill-rule:evenodd}</style></defs><path id="Фигура_4" data-name="Фигура 4" class="cls-1" d="M1304.94 337.944l.06-2.354h-2.72l-.05 2.35zm-.3 6.485l.05-2.323h-2.73l-.06 2.326h2.74zm2.41-12.43h-1.58a15.117 15.117 0 0 1 1.49 7.958 17.754 17.754 0 0 1-2.28 8.046h1.76a16.776 16.776 0 0 0 1.71-3.46 14.238 14.238 0 0 0 .91-4.513 14.847 14.847 0 0 0-.88-5.488 12.477 12.477 0 0 0-1.13-2.542z" transform="translate(-1301.91 -332)"/></svg>