<svg id="Layer_2" data-name="Layer 2" xmlns="http://www.w3.org/2000/svg" viewBox="0 0 16.86 16"><defs><style>.cls-1{fill:none}.cls-2{fill:url(#linear-gradient)}.cls-3{fill:url(#linear-gradient-2)}.cls-4{clip-path:url(#clip-path)}.cls-5{fill:#427ab3}.cls-6{fill:#437cb4}.cls-7{fill:#447db5}.cls-8{fill:#457eb6}.cls-9{fill:#467fb7}.cls-10{fill:#4780b8}.cls-11{fill:#4882b9}.cls-12{fill:#4983bb}.cls-13{fill:#4a84bc}.cls-14{fill:#4b86bd}.cls-15{fill:#4c87be}.cls-16{fill:#4d88bf}.cls-17{fill:#4f89c0}.cls-18{fill:#508bc2}.cls-19{fill:#518cc3}.cls-20{fill:#528dc4}.cls-21{fill:#538fc5}.cls-22{fill:#5490c6}.cls-23{fill:#5692c8}.cls-24{fill:#5793c9}.cls-25{fill:#5895ca}.cls-26{fill:#5a96cb}.cls-27{fill:#5b98cd}.cls-28{fill:#5c99ce}.cls-29{fill:#5e9bcf}.cls-30{fill:#5f9cd1}.cls-31{fill:#619ed2}.cls-32{fill:#629fd3}.cls-33{fill:#63a1d5}.cls-34{fill:#65a3d6}.cls-35{fill:#66a4d7}.cls-36{fill:#68a6d9}.cls-37{fill:#69a8da}.cls-38{fill:#6baadb}.cls-39{fill:#6dabdd}.cls-40{fill:#6eadde}.cls-41{fill:#70afe0}.cls-42{fill:#71b1e1}.cls-43{fill:#73b3e3}.cls-44{fill:#75b5e4}.cls-45{fill:#77b7e6}.cls-46{fill:#79b9e7}.cls-47{fill:#7abbe9}.cls-48{fill:#7cbdea}.cls-49{fill:#7ebfec}.cls-50{fill:#80c1ee}.cls-51{fill:#82c4f0}.cls-52{fill:#84c6f2}.cls-53{fill:#86c9f4}.cls-54{fill:#89caf4}.cls-55{fill:#8ccbf4}.cls-56{fill:#8eccf5}.cls-57{fill:#91cef5}.cls-58{fill:#94cff5}.cls-59{fill:#97d0f6}.cls-60{fill:#9ad1f6}.cls-61{fill:#9dd3f6}.cls-62{fill:#a0d4f7}.cls-63{fill:#a4d5f7}.cls-64{fill:#a7d7f7}.cls-65{fill:#aad8f8}.cls-66{fill:#aedaf8}.cls-67{fill:#b1dbf8}.cls-68{fill:#b5ddf9}.cls-69{fill:#b8def9}.cls-70{fill:#bce0f9}.cls-71{fill:#bfe2fa}.cls-72{fill:#c3e3fa}.cls-73{fill:#c6e5fa}.cls-74{fill:#cae6fb}.cls-75{fill:#cde8fb}.cls-76{fill:#d1eafb}.cls-77{fill:#d4ebfc}.cls-78{fill:#d8edfc}.cls-79{fill:#dbeffc}.cls-80{fill:#dff0fd}.cls-81{fill:#e3f2fd}.cls-82{fill:#e6f4fd}.cls-83{fill:#eaf5fd}.cls-84{fill:#eef7fe}.cls-85{fill:#f1f9fe}.cls-86{fill:#f5fafe}.cls-87{fill:#f9fcff}.cls-88{fill:#fff}.cls-89{fill:url(#linear-gradient-3)}.cls-90{fill:url(#linear-gradient-4)}.cls-91{fill:url(#linear-gradient-5)}.cls-92{fill:url(#linear-gradient-6)}.cls-93{fill:url(#linear-gradient-7)}.cls-94{fill:url(#linear-gradient-8)}.cls-95{fill:url(#linear-gradient-9)}.cls-96{fill:url(#linear-gradient-10)}.cls-97{fill:url(#linear-gradient-11)}.cls-98{fill:url(#linear-gradient-12)}.cls-99{fill:url(#radial-gradient)}.cls-100{fill:url(#linear-gradient-13)}.cls-101{fill:url(#linear-gradient-14)}.cls-102{fill:url(#linear-gradient-15)}.cls-103{fill:url(#linear-gradient-16)}.cls-104{fill:url(#linear-gradient-17)}</style><linearGradient id="linear-gradient" x1="232.76" y1="608.49" x2="236.85" y2="618.1" gradientUnits="userSpaceOnUse"><stop offset="0" stop-color="#5cbcf2"/><stop offset=".24" stop-color="#66bff3"/><stop offset=".5" stop-color="#fff"/><stop offset=".75" stop-color="#66bff3"/><stop offset="1" stop-color="#5cbcf2"/></linearGradient><linearGradient id="linear-gradient-2" x1="232.33" y1="611.64" x2="235.7" y2="615.47" gradientUnits="userSpaceOnUse"><stop offset=".56" stop-color="#427ab3"/><stop offset=".69" stop-color="#427ab3"/><stop offset=".74" stop-color="#4480b9"/><stop offset=".81" stop-color="#4c90ca"/><stop offset=".88" stop-color="#57abe5"/><stop offset="1" stop-color="#acdaf9"/></linearGradient><clipPath id="clip-path" transform="translate(-225.89 -604.62)"><path class="cls-1" d="M240.83 611.35l-2.66.2-2.41.18a3.82 3.82 0 0 0-3.53 2.54l-.9 2.09-1.18 2.76 2.6-2.76.92-1a4.36 4.36 0 0 1 1.72-1.17 4 4 0 0 1 1.14-.21l1.29-.79.37-.11-.07-.07 1.29-.79.37-.11-.07-.07z"/></clipPath><linearGradient id="linear-gradient-3" x1="229.8" y1="616.89" x2="238.99" y2="612.65" gradientUnits="userSpaceOnUse"><stop offset="0" stop-color="#fff"/><stop offset=".07" stop-color="#fdfeff"/><stop offset=".09" stop-color="#f6fbfe"/><stop offset=".11" stop-color="#ebf5fc"/><stop offset=".13" stop-color="#daecf9"/><stop offset=".14" stop-color="#c4e1f5"/><stop offset=".15" stop-color="#a8d4f1"/><stop offset=".16" stop-color="#88c4ec"/><stop offset=".17" stop-color="#64b1e6"/><stop offset=".17" stop-color="#4ba5e2"/><stop offset=".18" stop-color="#4590c8"/><stop offset=".18" stop-color="#3f7eb2"/><stop offset=".19" stop-color="#3b70a1"/><stop offset=".2" stop-color="#386696"/><stop offset=".21" stop-color="#36618f"/><stop offset=".24" stop-color="#365f8d"/><stop offset=".34" stop-color="#376190"/><stop offset=".41" stop-color="#3c6699"/><stop offset=".45" stop-color="#416ba2"/><stop offset=".47" stop-color="#4879b3"/><stop offset=".5" stop-color="#538fce"/><stop offset=".53" stop-color="#5c9ed9"/><stop offset=".59" stop-color="#6dbaee"/><stop offset=".72" stop-color="#fff"/></linearGradient><linearGradient id="linear-gradient-4" x1="229.85" y1="616.27" x2="239.93" y2="613.58" gradientUnits="userSpaceOnUse"><stop offset="0" stop-color="#2f416e"/><stop offset=".02" stop-color="#395c8d"/><stop offset=".05" stop-color="#4073a7"/><stop offset=".07" stop-color="#4682b9"/><stop offset=".09" stop-color="#498cc3"/><stop offset=".12" stop-color="#4a8fc7"/><stop offset=".2" stop-color="#4fa8e3"/><stop offset=".21" stop-color="#73bae9"/><stop offset=".22" stop-color="#9dcfef"/><stop offset=".23" stop-color="#c1e0f5"/><stop offset=".24" stop-color="#dceef9"/><stop offset=".26" stop-color="#f0f7fd"/><stop offset=".27" stop-color="#fbfdfe"/><stop offset=".28" stop-color="#fff"/><stop offset=".37" stop-color="#4aace8"/><stop offset=".49" stop-color="#314270"/><stop offset=".56" stop-color="#4673aa"/><stop offset=".61" stop-color="#5698d5"/><stop offset=".74" stop-color="#51afe9"/></linearGradient><linearGradient id="linear-gradient-5" x1="229.81" y1="617.32" x2="236.88" y2="616.29" gradientUnits="userSpaceOnUse"><stop offset="0" stop-color="#fff"/><stop offset=".08" stop-color="#aedbf9"/><stop offset=".09" stop-color="#aad9f8"/><stop offset=".11" stop-color="#9ed3f5"/><stop offset=".12" stop-color="#8bc8f1"/><stop offset=".13" stop-color="#6fb9ea"/><stop offset=".15" stop-color="#4fa8e3"/><stop offset=".16" stop-color="#4a92cb"/><stop offset=".17" stop-color="#457db5"/><stop offset=".19" stop-color="#426da3"/><stop offset=".22" stop-color="#3f6197"/><stop offset=".25" stop-color="#3d5b90"/><stop offset=".32" stop-color="#3d598e"/><stop offset=".42" stop-color="#3e5b90"/><stop offset=".45" stop-color="#436296"/><stop offset=".47" stop-color="#4b6da0"/><stop offset=".49" stop-color="#577eb0"/><stop offset=".51" stop-color="#6694c3"/><stop offset=".53" stop-color="#79afdb"/><stop offset=".54" stop-color="#8ecdf6"/><stop offset=".57" stop-color="#bde2fa"/><stop offset=".6" stop-color="#fff"/><stop offset=".62" stop-color="#fafdfe"/><stop offset=".64" stop-color="#ebf6fc"/><stop offset=".67" stop-color="#d2ebf9"/><stop offset=".69" stop-color="#b0dbf5"/><stop offset=".72" stop-color="#84c7f0"/><stop offset=".74" stop-color="#4fafe9"/><stop offset=".75" stop-color="#48ace8"/><stop offset=".87" stop-color="#2e3b69"/><stop offset=".87" stop-color="#324878"/><stop offset=".9" stop-color="#3a659b"/><stop offset=".92" stop-color="#417cb6"/><stop offset=".95" stop-color="#468dca"/><stop offset=".97" stop-color="#4997d5"/><stop offset="1" stop-color="#4a9ad9"/></linearGradient><linearGradient id="linear-gradient-6" x1="11.45" y1="10.03" x2="14.85" y2="5.95" gradientUnits="userSpaceOnUse"><stop offset="0" stop-color="#3d6397"/><stop offset=".08" stop-color="#528fce"/><stop offset=".13" stop-color="#518dcb"/><stop offset=".17" stop-color="#4d85c1"/><stop offset=".21" stop-color="#4778b1"/><stop offset=".24" stop-color="#3e669a"/><stop offset=".27" stop-color="#324e7d"/><stop offset=".29" stop-color="#2b406b"/><stop offset=".35" stop-color="#355586"/><stop offset=".42" stop-color="#3e689e"/><stop offset=".47" stop-color="#416fa7"/><stop offset=".68" stop-color="#45598e"/><stop offset=".84" stop-color="#506793"/><stop offset="1" stop-color="#283762"/></linearGradient><linearGradient id="linear-gradient-7" x1="228.67" y1="618.15" x2="240.53" y2="609.53" gradientUnits="userSpaceOnUse"><stop offset="0" stop-color="#395687"/><stop offset=".14" stop-color="#2f416e"/><stop offset=".15" stop-color="#324b79"/><stop offset=".17" stop-color="#3a6496"/><stop offset=".2" stop-color="#478dc5"/><stop offset=".22" stop-color="#4fa8e3"/><stop offset=".24" stop-color="#79bdeb"/><stop offset=".26" stop-color="#afd9f5"/><stop offset=".28" stop-color="#d1eafb"/><stop offset=".29" stop-color="#def0fd"/><stop offset=".31" stop-color="#dbeffd"/><stop offset=".33" stop-color="#d3ebfb"/><stop offset=".34" stop-color="#c5e3f8"/><stop offset=".35" stop-color="#b1d9f5"/><stop offset=".36" stop-color="#96ccf0"/><stop offset=".37" stop-color="#76bcea"/><stop offset=".38" stop-color="#51a9e3"/><stop offset=".38" stop-color="#4fa8e3"/><stop offset=".39" stop-color="#4a98d0"/><stop offset=".41" stop-color="#417eb2"/><stop offset=".42" stop-color="#3a699a"/><stop offset=".44" stop-color="#365a89"/><stop offset=".46" stop-color="#33527f"/><stop offset=".49" stop-color="#324f7c"/><stop offset=".51" stop-color="#385c8d"/><stop offset=".55" stop-color="#4472ac"/><stop offset=".58" stop-color="#4b7fbe"/><stop offset=".6" stop-color="#4d84c5"/><stop offset=".74" stop-color="#54ace6"/><stop offset=".75" stop-color="#64b4e8"/><stop offset=".76" stop-color="#88c5ee"/><stop offset=".77" stop-color="#a8d5f2"/><stop offset=".79" stop-color="#c4e2f6"/><stop offset=".81" stop-color="#daedfa"/><stop offset=".83" stop-color="#ebf5fc"/><stop offset=".86" stop-color="#f6fbfe"/><stop offset=".9" stop-color="#fdfeff"/><stop offset="1" stop-color="#fff"/></linearGradient><linearGradient id="linear-gradient-8" x1="5.73" y1="5.17" x2="10.14" y2="1.39" gradientUnits="userSpaceOnUse"><stop offset="0" stop-color="#53a0d9"/><stop offset=".07" stop-color="#456093"/><stop offset=".44" stop-color="#529cd9"/><stop offset="1" stop-color="#3b6a9d"/></linearGradient><linearGradient id="linear-gradient-9" x1=".12" y1="5.57" x2="6.9" y2="7.29" gradientUnits="userSpaceOnUse"><stop offset=".14" stop-color="#4487c2"/><stop offset=".27" stop-color="#478dc8"/><stop offset=".45" stop-color="#519fd9"/><stop offset=".54" stop-color="#58abe5"/><stop offset=".96" stop-color="#9ad2f6"/><stop offset=".97" stop-color="#84c4ee"/><stop offset=".97" stop-color="#6eb6e6"/><stop offset=".98" stop-color="#5eade0"/><stop offset=".99" stop-color="#55a7dd"/><stop offset="1" stop-color="#52a5dc"/></linearGradient><linearGradient id="linear-gradient-10" x1="6.17" y1="9.34" x2="-.15" y2="6.42" gradientUnits="userSpaceOnUse"><stop offset="0" stop-color="#466097"/><stop offset=".02" stop-color="#466299"/><stop offset=".02" stop-color="#4867a0"/><stop offset=".03" stop-color="#4b72ab"/><stop offset=".03" stop-color="#4f80bc"/><stop offset=".03" stop-color="#528ac8"/><stop offset=".44" stop-color="#4670a6"/><stop offset=".66" stop-color="#4fb9f2"/><stop offset=".87" stop-color="#3f6298"/><stop offset="1" stop-color="#4fa8e3"/></linearGradient><linearGradient id="linear-gradient-11" x1="3.86" y1="10.38" x2="5.41" y2="14.94" gradientUnits="userSpaceOnUse"><stop offset="0" stop-color="#5078b0"/><stop offset=".04" stop-color="#5cbcf2"/><stop offset=".74" stop-color="#65aae2"/><stop offset="1" stop-color="#354777"/></linearGradient><linearGradient id="linear-gradient-12" x1="3.07" y1="15.89" x2="8.02" y2="11.81" gradientUnits="userSpaceOnUse"><stop offset=".01" stop-color="#64baf0"/><stop offset=".09" stop-color="#61b4ea"/><stop offset=".21" stop-color="#59a3d9"/><stop offset=".34" stop-color="#4d87bc"/><stop offset=".46" stop-color="#3e679c"/><stop offset=".62" stop-color="#4982bb"/><stop offset=".84" stop-color="#87caf5"/><stop offset=".88" stop-color="#81c5f2"/><stop offset=".93" stop-color="#6fb5e8"/><stop offset="1" stop-color="#529cd9"/></linearGradient><radialGradient id="radial-gradient" cx="233.93" cy="616.61" r=".93" gradientTransform="matrix(.93 0 0 .93 16.88 44.12)" gradientUnits="userSpaceOnUse"><stop offset=".16" stop-color="#529cd9"/><stop offset=".26" stop-color="#5095d1"/><stop offset=".42" stop-color="#4983bb"/><stop offset=".61" stop-color="#3e6498"/><stop offset=".74" stop-color="#354c7c"/></radialGradient><linearGradient id="linear-gradient-13" x1="13.79" y1="15.96" x2="8.84" y2="11.73" gradientUnits="userSpaceOnUse"><stop offset=".31" stop-color="#3c5d91"/><stop offset=".64" stop-color="#385384"/><stop offset="1" stop-color="#354c7c"/></linearGradient><linearGradient id="linear-gradient-14" x1="13.51" y1="16.06" x2="10.93" y2="9.72" gradientUnits="userSpaceOnUse"><stop offset="0" stop-color="#50a9e5"/><stop offset=".35" stop-color="#52aae6"/><stop offset=".55" stop-color="#5aafe8"/><stop offset=".7" stop-color="#68b8ed"/><stop offset=".83" stop-color="#7bc4f3"/><stop offset=".87" stop-color="#82c8f5"/><stop offset=".93" stop-color="#80c7f5"/><stop offset=".97" stop-color="#78c5f4"/><stop offset=".99" stop-color="#6ac0f3"/><stop offset="1" stop-color="#66bff3"/></linearGradient><linearGradient id="linear-gradient-15" x1="10.56" y1="9.19" x2="17.05" y2="6.66" gradientUnits="userSpaceOnUse"><stop offset="0" stop-color="#529cd9"/><stop offset=".02" stop-color="#529edb"/><stop offset=".03" stop-color="#50a5e1"/><stop offset=".04" stop-color="#4eb0eb"/><stop offset=".04" stop-color="#4eb3ed"/><stop offset=".09" stop-color="#4ba8e1"/><stop offset=".17" stop-color="#428ac2"/><stop offset=".19" stop-color="#3f81b8"/><stop offset=".53" stop-color="#4383bd"/><stop offset=".64" stop-color="#4280b9"/><stop offset=".74" stop-color="#3f76ae"/><stop offset=".84" stop-color="#3b679c"/><stop offset=".93" stop-color="#345082"/><stop offset="1" stop-color="#2e3b69"/></linearGradient><linearGradient id="linear-gradient-16" x1="9.81" y1="6.8" x2="16.86" y2="6.22" gradientUnits="userSpaceOnUse"><stop offset=".01" stop-color="#529fdc"/><stop offset=".02" stop-color="#54a0dd"/><stop offset=".03" stop-color="#5ba5e0"/><stop offset=".03" stop-color="#66aee4"/><stop offset=".04" stop-color="#77baeb"/><stop offset=".04" stop-color="#7cbded"/><stop offset=".32" stop-color="#538dc4"/><stop offset=".47" stop-color="#427ab3"/><stop offset=".64" stop-color="#498ec8"/><stop offset=".86" stop-color="#50a3dd"/><stop offset="1" stop-color="#53aae5"/></linearGradient><linearGradient id="linear-gradient-17" x1="7.89" y1=".38" x2="10.39" y2="6.55" gradientUnits="userSpaceOnUse"><stop offset="0" stop-color="#7dc7f5"/><stop offset=".42" stop-color="#7bc5f3"/><stop offset=".58" stop-color="#75beed"/><stop offset=".68" stop-color="#69b3e3"/><stop offset=".77" stop-color="#59a2d4"/><stop offset=".85" stop-color="#448cc0"/><stop offset=".87" stop-color="#3d85ba"/><stop offset=".92" stop-color="#3f87bc"/><stop offset=".96" stop-color="#468fc4"/><stop offset=".98" stop-color="#529bd2"/><stop offset="1" stop-color="#61abe3"/></linearGradient></defs><title>star</title><path class="cls-2" d="M232.91 611.53l-5.92-.45 5 3.13-2.29 5.48 4.09-3.42a.74.74 0 0 1 1 0l4.09 3.42-2.29-5.48 5-3.13-5.92.45-1.41-5.77z" transform="translate(-225.89 -604.62)"/><path class="cls-3" d="M240.83 611.35l-2.66.2-2.41.18a3.82 3.82 0 0 0-3.53 2.54l-.9 2.09-1.18 2.76 2.6-2.76.92-1a4.36 4.36 0 0 1 1.72-1.17 4 4 0 0 1 1.14-.21l1.29-.79.37-.11-.07-.07 1.29-.79.37-.11-.07-.07z" transform="translate(-225.89 -604.62)"/><g class="cls-4"><path class="cls-5" d="M7.51 12.99l2.18-2.61-2.55-3.32-2.52 4.1 2.89 1.83z"/><path class="cls-6" d="M7.52 12.99l2.16-2.61-2.55-3.3-2.5 4.07 2.89 1.84z"/><path class="cls-7" d="M7.52 12.98l2.14-2.59-2.54-3.28-2.49 4.03 2.89 1.84z"/><path class="cls-8" d="M7.52 12.97l2.13-2.58-2.54-3.25-2.47 4 2.88 1.83z"/><path class="cls-9" d="M7.52 12.96l2.12-2.56L7.1 7.16l-2.45 3.97 2.87 1.83z"/><path class="cls-10" d="M7.52 12.96l2.11-2.55-2.54-3.22-2.43 3.94 2.86 1.83z"/><path class="cls-11" d="M7.53 12.95l2.08-2.54-2.53-3.2-2.41 3.91 2.86 1.83z"/><path class="cls-12" d="M7.53 12.94l2.07-2.52-2.53-3.18-2.39 3.87 2.85 1.83z"/><path class="cls-13" d="M7.53 12.93l2.06-2.5-2.54-3.16-2.36 3.84 2.84 1.82z"/><path class="cls-14" d="M7.53 12.92l2.04-2.49-2.53-3.14-2.35 3.81 2.84 1.82z"/><path class="cls-15" d="M7.54 12.92l2.02-2.48-2.53-3.12L4.7 11.1l2.84 1.82z"/><path class="cls-16" d="M7.54 12.91l2.01-2.47-2.53-3.09-2.31 3.74 2.83 1.82z"/><path class="cls-17" d="M7.54 12.9l1.99-2.45-2.52-3.08-2.29 3.71 2.82 1.82z"/><path class="cls-18" d="M7.54 12.89l1.98-2.43L7 7.4l-2.27 3.68 2.81 1.81z"/><path class="cls-19" d="M7.54 12.88l1.97-2.42-2.52-3.04-2.25 3.65 2.8 1.81z"/><path class="cls-20" d="M7.54 12.88l1.95-2.41-2.51-3.02-2.24 3.61 2.8 1.82z"/><path class="cls-21" d="M7.55 12.87l1.93-2.4-2.51-2.99-2.22 3.58 2.8 1.81z"/><path class="cls-22" d="M7.55 12.86l1.92-2.38L6.96 7.5l-2.2 3.55 2.79 1.81z"/><path class="cls-23" d="M7.55 12.85l1.9-2.36-2.51-2.96-2.17 3.51 2.78 1.81z"/><path class="cls-24" d="M7.55 12.85l1.89-2.36-2.51-2.93-2.15 3.48 2.77 1.81z"/><path class="cls-25" d="M7.55 12.84l1.88-2.34-2.51-2.92-2.13 3.45 2.76 1.81z"/><path class="cls-26" d="M7.56 12.83l1.85-2.32-2.5-2.9-2.12 3.42 2.77 1.8z"/><path class="cls-27" d="M7.56 12.82l1.84-2.31-2.5-2.88-2.1 3.39 2.76 1.8z"/><path class="cls-28" d="M7.56 12.82l1.83-2.3-2.5-2.86-2.08 3.35 2.75 1.81z"/><path class="cls-29" d="M7.56 12.81l1.81-2.29-2.49-2.83-2.06 3.32 2.74 1.8z"/><path class="cls-30" d="M7.57 12.8l1.79-2.27-2.49-2.82L4.83 11l2.74 1.8z"/><path class="cls-31" d="M7.57 12.79l1.78-2.25-2.49-2.8-2.02 3.25 2.73 1.8z"/><path class="cls-32" d="M7.57 12.79l1.76-2.25-2.49-2.77-2 3.22 2.73 1.8z"/><path class="cls-33" d="M7.57 12.78l1.75-2.23-2.49-2.76-1.98 3.19 2.72 1.8z"/><path class="cls-34" d="M7.57 12.77l1.74-2.22-2.49-2.73-1.96 3.16 2.71 1.79z"/><path class="cls-35" d="M7.58 12.76l1.71-2.2-2.48-2.72-1.94 3.13 2.71 1.79z"/><path class="cls-36" d="M7.58 12.75l1.7-2.18-2.48-2.7-1.92 3.09 2.7 1.79z"/><path class="cls-37" d="M7.58 12.75l1.69-2.18L6.79 7.9l-1.9 3.06 2.69 1.79z"/><path class="cls-38" d="M7.58 12.74l1.67-2.16-2.47-2.66-1.89 3.03 2.69 1.79z"/><path class="cls-39" d="M7.58 12.73l1.66-2.14-2.47-2.64-1.87 3 2.68 1.78z"/><path class="cls-40" d="M7.59 12.72l1.64-2.13-2.47-2.61-1.85 2.96 2.68 1.78z"/><path class="cls-41" d="M7.59 12.71l1.62-2.11L6.75 8l-1.83 2.93 2.67 1.78z"/><path class="cls-42" d="M7.59 12.71L9.2 10.6 6.74 8.03l-1.81 2.9 2.66 1.78z"/><path class="cls-43" d="M7.59 12.7l1.6-2.09-2.47-2.56-1.78 2.87 2.65 1.78z"/><path class="cls-44" d="M7.59 12.69l1.58-2.07-2.46-2.54-1.76 2.83 2.64 1.78z"/><path class="cls-45" d="M7.6 12.68l1.56-2.06L6.7 8.11l-1.75 2.8 2.65 1.77z"/><path class="cls-46" d="M7.6 12.68l1.55-2.05-2.46-2.5-1.73 2.77 2.64 1.78z"/><path class="cls-47" d="M7.6 12.67l1.53-2.04-2.45-2.47-1.71 2.74 2.63 1.77z"/><path class="cls-48" d="M7.6 12.66l1.52-2.02-2.45-2.45-1.69 2.7 2.62 1.77z"/><path class="cls-49" d="M7.6 12.65l1.51-2-2.45-2.44-1.67 2.67 2.61 1.77z"/><path class="cls-50" d="M7.61 12.64l1.48-1.99-2.44-2.41L5 10.88l2.61 1.76z"/><path class="cls-51" d="M7.61 12.64l1.47-1.98-2.44-2.39L5 10.87l2.61 1.77z"/><path class="cls-52" d="M7.61 12.63l1.46-1.97-2.44-2.37-1.62 2.57 2.6 1.77z"/><path class="cls-53" d="M7.61 12.62l1.44-1.95-2.44-2.35-1.59 2.54 2.59 1.76z"/><path class="cls-54" d="M5.03 10.85l2.58 1.76 1.42-1.92-2.44-2.34-1.56 2.5z"/><path class="cls-55" d="M5.04 10.84l2.57 1.75 1.4-1.89-2.44-2.32-1.53 2.46z"/><path class="cls-56" d="M5.05 10.84l2.56 1.74 1.38-1.86-2.44-2.31-1.5 2.43z"/><path class="cls-57" d="M5.07 10.83l2.54 1.74 1.36-1.84-2.44-2.28-1.46 2.38z"/><path class="cls-58" d="M5.08 10.82l2.53 1.73 1.34-1.8-2.44-2.27-1.43 2.34z"/><path class="cls-59" d="M5.09 10.81l2.52 1.73 1.32-1.78-2.44-2.25-1.4 2.3z"/><path class="cls-60" d="M5.1 10.81l2.51 1.72 1.3-1.75-2.44-2.24-1.37 2.27z"/><path class="cls-61" d="M5.11 10.8l2.5 1.71 1.28-1.72-2.44-2.22-1.34 2.23z"/><path class="cls-62" d="M5.12 10.79l2.49 1.71 1.26-1.69-2.44-2.2-1.31 2.18z"/><path class="cls-63" d="M5.13 10.79l2.48 1.69 1.24-1.66-2.44-2.18-1.28 2.15z"/><path class="cls-64" d="M5.14 10.78l2.47 1.69 1.22-1.63-2.44-2.17-1.25 2.11z"/><path class="cls-65" d="M5.16 10.77l2.44 1.69 1.21-1.6L6.37 8.7l-1.21 2.07z"/><path class="cls-66" d="M5.17 10.77l2.43 1.67 1.19-1.57-2.44-2.13-1.18 2.03z"/><path class="cls-67" d="M5.18 10.76l2.42 1.67 1.17-1.54-2.44-2.12-1.15 1.99z"/><path class="cls-68" d="M5.19 10.75l2.41 1.66 1.15-1.51-2.44-2.1-1.12 1.95z"/><path class="cls-69" d="M5.2 10.74l2.4 1.66 1.13-1.48-2.44-2.09-1.09 1.91z"/><path class="cls-70" d="M5.21 10.74l2.39 1.65 1.11-1.46-2.44-2.07-1.06 1.88z"/><path class="cls-71" d="M5.22 10.73l2.38 1.64 1.09-1.42L6.25 8.9l-1.03 1.83z"/><path class="cls-72" d="M5.23 10.72l2.37 1.64 1.07-1.4-2.44-2.03-1 1.79z"/><path class="cls-73" d="M5.24 10.72l2.36 1.63 1.05-1.37-2.44-2.02-.97 1.76z"/><path class="cls-74" d="M5.26 10.71l2.34 1.62 1.03-1.34-2.44-2-.93 1.72z"/><path class="cls-75" d="M5.27 10.7l2.33 1.62 1.01-1.31-2.44-1.98-.9 1.67z"/><path class="cls-76" d="M5.28 10.69L7.6 12.3l.98-1.28-2.43-1.96-.87 1.63z"/><path class="cls-77" d="M5.29 10.69l2.31 1.6.96-1.25-2.43-1.95-.84 1.6z"/><path class="cls-78" d="M5.3 10.68l2.3 1.6.94-1.23-2.43-1.93-.81 1.56z"/><path class="cls-79" d="M5.31 10.67l2.28 1.59.93-1.19-2.43-1.92-.78 1.52z"/><path class="cls-80" d="M5.32 10.67l2.27 1.58.91-1.17-2.43-1.89-.75 1.48z"/><path class="cls-81" d="M5.33 10.66l2.26 1.58.89-1.14-2.43-1.88-.72 1.44z"/><path class="cls-82" d="M5.34 10.65l2.25 1.57.87-1.1-2.43-1.87-.69 1.4z"/><path class="cls-83" d="M5.36 10.64l2.23 1.57.85-1.08-2.43-1.85-.65 1.36z"/><path class="cls-84" d="M5.37 10.64l2.22 1.56.83-1.05-2.43-1.84-.62 1.33z"/><path class="cls-85" d="M5.38 10.63l2.21 1.55.81-1.02-2.43-1.81-.59 1.28z"/><path class="cls-86" d="M5.39 10.62l2.2 1.55.79-.99-2.43-1.8-.56 1.24z"/><path class="cls-87" d="M5.4 10.62l2.19 1.53.77-.96-2.43-1.78-.53 1.21z"/><path class="cls-88" d="M7.59 12.14l.75-.93-2.43-1.77-.5 1.17 2.18 1.53z"/></g><path class="cls-89" d="M239.76 612.13l-.37.11-3.38.25a3.62 3.62 0 0 0-3.24 2.2l-2.2 3.71 2.14-3.76a3.64 3.64 0 0 1 3.31-2.23zm-3.45 1.12a3.67 3.67 0 0 0-3.11 1.75l-2.55 3.43 2.61-3.39a3.61 3.61 0 0 1 3-1.74l1.52-.11.37-.11z" transform="translate(-225.89 -604.62)"/><path class="cls-90" d="M230.64 618.44l2.5-3.47a3.75 3.75 0 0 1 3.11-1.79l1.87-.14.07.07-1.87.14a3.67 3.67 0 0 0-3.12 1.75zm9-6.39l-3.73.28a3.73 3.73 0 0 0-3.31 2.26l-2.09 3.8 2.14-3.76a3.64 3.64 0 0 1 3.31-2.23l3.73-.28-.07-.07z" transform="translate(-225.89 -604.62)"/><path class="cls-91" d="M229.74 619.69l4.08-4.17a3.79 3.79 0 0 1 2.78-1.32l-.07-.21a3.94 3.94 0 0 0-2.85 1.38l-3.53 3.73z" transform="translate(-225.89 -604.62)"/><path class="cls-92" d="M14.94 6.73l-1.14.71.07.07-.36.11-1.29.79.07.07-.36.11-1.29.79.07.21 5.05-3.13-.82.27z"/><path class="cls-93" d="M230.15 619.12l2.08-4.84a3.82 3.82 0 0 1 3.53-2.54l5.07-.38.82-.27-5.92.45a4 4 0 0 0-3.7 2.66l-2.29 5.49z" transform="translate(-225.89 -604.62)"/><path class="cls-94" d="M6.81 6.62l.21.29 1.41-5.76V0L6.81 6.62z"/><path class="cls-95" d="M6.81 6.62l.21.29-5.92-.45L0 6.1l6.81.52z"/><path class="cls-96" d="M5.8 9.7l.34-.11L1.1 6.46 0 6.1l5.8 3.6z"/><path class="cls-97" d="M5.8 9.7l.34-.11-2.29 5.48-.64.93L5.8 9.7z"/><path class="cls-98" d="M7.94 11.65l.18.21L3.21 16l.64-.93 4.09-3.42z"/><path class="cls-99" d="M234.32 616.09a.88.88 0 0 0-.49.18l.18.21a.47.47 0 0 1 .62 0l.18-.21a.88.88 0 0 0-.49-.18z" transform="translate(-225.89 -604.62)"/><path class="cls-100" d="M8.91 11.65l-.17.21L13.65 16l-.65-.93-4.09-3.42z"/><path class="cls-101" d="M11.05 9.7l-.34-.11L13 15.07l.65.93-2.6-6.3z"/><path class="cls-102" d="M11.05 9.7l-.34-.11 5.05-3.13 1.1-.36-5.81 3.6z"/><path class="cls-103" d="M10.05 6.62l-.21.29 5.92-.45 1.1-.36-6.81.52z"/><path class="cls-104" d="M10.05 6.62l-.21.29-1.41-5.76V0l1.62 6.62z"/></svg>