<svg xmlns="http://www.w3.org/2000/svg" width="16" height="13" viewBox="0 0 16 13"><defs><style>.cls-1{fill:#2d88b5;fill-rule:evenodd}</style></defs><path id="Forma_1" data-name="Forma 1" class="cls-1" d="M1326.86 366.868h-8.4a4.682 4.682 0 0 1 .14 1.139v9a4.267 4.267 0 0 1-.1.959h8.36a1.136 1.136 0 0 0 1.14-1.134v-8.816a1.147 1.147 0 0 0-1.14-1.148zm-4.99 9.841a.611.611 0 1 1 0-1.221.611.611 0 0 1 0 1.221zm0-1.744a.611.611 0 1 1 0-1.222.611.611 0 0 1 0 1.222zm0-1.745a.611.611 0 1 1 0-1.221.611.611 0 0 1 0 1.221zm1.65 3.516a.611.611 0 1 1 0-1.222.611.611 0 0 1 0 1.222zm0-1.745a.611.611 0 1 1 0-1.221.611.611 0 0 1 0 1.221zm0-1.744a.611.611 0 1 1 0-1.222.611.611 0 0 1 0 1.222zm1.68 3.489a.611.611 0 1 1 0-1.222.611.611 0 0 1 0 1.222zm0-1.745a.611.611 0 1 1 0-1.221.611.611 0 0 1 0 1.221zm0-1.744a.611.611 0 1 1 0-1.222.611.611 0 0 1 0 1.222zm1.5-3.388a1.075 1.075 0 0 1-1.08 1.073h-4.16a1.075 1.075 0 0 1-1.08-1.073v-.545a1.074 1.074 0 0 1 1.08-1.073h4.16a1.074 1.074 0 0 1 1.08 1.073v.545zm-13.4-2.991h-.16a1.14 1.14 0 0 0-1.14 1.147v8.817a1.13 1.13 0 0 0 1.14 1.134h.12a4.272 4.272 0 0 1-.11-.96v-9a4.681 4.681 0 0 1 .15-1.138zm3.11-.869h-1.06c-.63 0-1.15.9-1.15 2.008v9c0 1.1.52 2 1.15 2h1.06c.63 0 1.15-.894 1.15-2v-9c0-1.107-.52-2.007-1.15-2.007z" transform="translate(-1312 -366)"/></svg>