<svg xmlns="http://www.w3.org/2000/svg" width="7.15" height="16" viewBox="0 0 7.15 16">
  <defs>
    <style>
      .cls-1 {
        fill: #cf5248;
        fill-rule: evenodd;
      }
    </style>
  </defs>
  <path id="Фигура_4" data-name="Фигура 4" class="cls-1" d="M1304.94,337.944l0.06-2.354-2.72,0-0.05,2.35Zm-0.3,6.485,0.05-2.323-2.73,0-0.06,2.326h2.74Zm2.41-12.43-1.58,0a15.117,15.117,0,0,1,1.49,7.958,17.754,17.754,0,0,1-2.28,8.046h1.76a16.776,16.776,0,0,0,1.71-3.46,14.238,14.238,0,0,0,.91-4.513,14.847,14.847,0,0,0-.88-5.488A12.477,12.477,0,0,0,1307.05,332Z" transform="translate(-1301.91 -332)"/>
</svg>
