<svg id="Layer_2" data-name="Layer 2" xmlns="http://www.w3.org/2000/svg" xmlns:xlink="http://www.w3.org/1999/xlink" viewBox="0 0 16.86 16">
  <defs>
    <style>
      .cls-1 {
        fill: none;
      }

      .cls-2 {
        fill: url(#linear-gradient);
      }

      .cls-3 {
        fill: url(#linear-gradient-2);
      }

      .cls-4 {
        clip-path: url(#clip-path);
      }

      .cls-5 {
        fill: #427ab3;
      }

      .cls-6 {
        fill: #437cb4;
      }

      .cls-7 {
        fill: #447db5;
      }

      .cls-8 {
        fill: #457eb6;
      }

      .cls-9 {
        fill: #467fb7;
      }

      .cls-10 {
        fill: #4780b8;
      }

      .cls-11 {
        fill: #4882b9;
      }

      .cls-12 {
        fill: #4983bb;
      }

      .cls-13 {
        fill: #4a84bc;
      }

      .cls-14 {
        fill: #4b86bd;
      }

      .cls-15 {
        fill: #4c87be;
      }

      .cls-16 {
        fill: #4d88bf;
      }

      .cls-17 {
        fill: #4f89c0;
      }

      .cls-18 {
        fill: #508bc2;
      }

      .cls-19 {
        fill: #518cc3;
      }

      .cls-20 {
        fill: #528dc4;
      }

      .cls-21 {
        fill: #538fc5;
      }

      .cls-22 {
        fill: #5490c6;
      }

      .cls-23 {
        fill: #5692c8;
      }

      .cls-24 {
        fill: #5793c9;
      }

      .cls-25 {
        fill: #5895ca;
      }

      .cls-26 {
        fill: #5a96cb;
      }

      .cls-27 {
        fill: #5b98cd;
      }

      .cls-28 {
        fill: #5c99ce;
      }

      .cls-29 {
        fill: #5e9bcf;
      }

      .cls-30 {
        fill: #5f9cd1;
      }

      .cls-31 {
        fill: #619ed2;
      }

      .cls-32 {
        fill: #629fd3;
      }

      .cls-33 {
        fill: #63a1d5;
      }

      .cls-34 {
        fill: #65a3d6;
      }

      .cls-35 {
        fill: #66a4d7;
      }

      .cls-36 {
        fill: #68a6d9;
      }

      .cls-37 {
        fill: #69a8da;
      }

      .cls-38 {
        fill: #6baadb;
      }

      .cls-39 {
        fill: #6dabdd;
      }

      .cls-40 {
        fill: #6eadde;
      }

      .cls-41 {
        fill: #70afe0;
      }

      .cls-42 {
        fill: #71b1e1;
      }

      .cls-43 {
        fill: #73b3e3;
      }

      .cls-44 {
        fill: #75b5e4;
      }

      .cls-45 {
        fill: #77b7e6;
      }

      .cls-46 {
        fill: #79b9e7;
      }

      .cls-47 {
        fill: #7abbe9;
      }

      .cls-48 {
        fill: #7cbdea;
      }

      .cls-49 {
        fill: #7ebfec;
      }

      .cls-50 {
        fill: #80c1ee;
      }

      .cls-51 {
        fill: #82c4f0;
      }

      .cls-52 {
        fill: #84c6f2;
      }

      .cls-53 {
        fill: #86c9f4;
      }

      .cls-54 {
        fill: #89caf4;
      }

      .cls-55 {
        fill: #8ccbf4;
      }

      .cls-56 {
        fill: #8eccf5;
      }

      .cls-57 {
        fill: #91cef5;
      }

      .cls-58 {
        fill: #94cff5;
      }

      .cls-59 {
        fill: #97d0f6;
      }

      .cls-60 {
        fill: #9ad1f6;
      }

      .cls-61 {
        fill: #9dd3f6;
      }

      .cls-62 {
        fill: #a0d4f7;
      }

      .cls-63 {
        fill: #a4d5f7;
      }

      .cls-64 {
        fill: #a7d7f7;
      }

      .cls-65 {
        fill: #aad8f8;
      }

      .cls-66 {
        fill: #aedaf8;
      }

      .cls-67 {
        fill: #b1dbf8;
      }

      .cls-68 {
        fill: #b5ddf9;
      }

      .cls-69 {
        fill: #b8def9;
      }

      .cls-70 {
        fill: #bce0f9;
      }

      .cls-71 {
        fill: #bfe2fa;
      }

      .cls-72 {
        fill: #c3e3fa;
      }

      .cls-73 {
        fill: #c6e5fa;
      }

      .cls-74 {
        fill: #cae6fb;
      }

      .cls-75 {
        fill: #cde8fb;
      }

      .cls-76 {
        fill: #d1eafb;
      }

      .cls-77 {
        fill: #d4ebfc;
      }

      .cls-78 {
        fill: #d8edfc;
      }

      .cls-79 {
        fill: #dbeffc;
      }

      .cls-80 {
        fill: #dff0fd;
      }

      .cls-81 {
        fill: #e3f2fd;
      }

      .cls-82 {
        fill: #e6f4fd;
      }

      .cls-83 {
        fill: #eaf5fd;
      }

      .cls-84 {
        fill: #eef7fe;
      }

      .cls-85 {
        fill: #f1f9fe;
      }

      .cls-86 {
        fill: #f5fafe;
      }

      .cls-87 {
        fill: #f9fcff;
      }

      .cls-88 {
        fill: #fff;
      }

      .cls-89 {
        fill: url(#linear-gradient-3);
      }

      .cls-90 {
        fill: url(#linear-gradient-4);
      }

      .cls-91 {
        fill: url(#linear-gradient-5);
      }

      .cls-92 {
        fill: url(#linear-gradient-6);
      }

      .cls-93 {
        fill: url(#linear-gradient-7);
      }

      .cls-94 {
        fill: url(#linear-gradient-8);
      }

      .cls-95 {
        fill: url(#linear-gradient-9);
      }

      .cls-96 {
        fill: url(#linear-gradient-10);
      }

      .cls-97 {
        fill: url(#linear-gradient-11);
      }

      .cls-98 {
        fill: url(#linear-gradient-12);
      }

      .cls-99 {
        fill: url(#radial-gradient);
      }

      .cls-100 {
        fill: url(#linear-gradient-13);
      }

      .cls-101 {
        fill: url(#linear-gradient-14);
      }

      .cls-102 {
        fill: url(#linear-gradient-15);
      }

      .cls-103 {
        fill: url(#linear-gradient-16);
      }

      .cls-104 {
        fill: url(#linear-gradient-17);
      }
    </style>
    <linearGradient id="linear-gradient" x1="232.76" y1="608.49" x2="236.85" y2="618.1" gradientUnits="userSpaceOnUse">
      <stop offset="0" stop-color="#5cbcf2"/>
      <stop offset="0.24" stop-color="#66bff3"/>
      <stop offset="0.5" stop-color="#fff"/>
      <stop offset="0.75" stop-color="#66bff3"/>
      <stop offset="1" stop-color="#5cbcf2"/>
    </linearGradient>
    <linearGradient id="linear-gradient-2" x1="232.33" y1="611.64" x2="235.7" y2="615.47" gradientUnits="userSpaceOnUse">
      <stop offset="0.56" stop-color="#427ab3"/>
      <stop offset="0.69" stop-color="#427ab3"/>
      <stop offset="0.74" stop-color="#4480b9"/>
      <stop offset="0.81" stop-color="#4c90ca"/>
      <stop offset="0.88" stop-color="#57abe5"/>
      <stop offset="1" stop-color="#acdaf9"/>
    </linearGradient>
    <clipPath id="clip-path" transform="translate(-225.89 -604.62)">
      <path class="cls-1" d="M240.83,611.35l-2.66.2-2.41.18a3.82,3.82,0,0,0-3.53,2.54l-0.9,2.09-1.18,2.76,2.6-2.76,0.92-1a4.36,4.36,0,0,1,1.72-1.17h0a4,4,0,0,1,1.14-.21l1.29-.79,0.37-.11-0.07-.07,1.29-.79h0l0.37-.11-0.07-.07Z"/>
    </clipPath>
    <linearGradient id="linear-gradient-3" x1="229.8" y1="616.89" x2="238.99" y2="612.65" gradientUnits="userSpaceOnUse">
      <stop offset="0" stop-color="#fff"/>
      <stop offset="0.07" stop-color="#fdfeff"/>
      <stop offset="0.09" stop-color="#f6fbfe"/>
      <stop offset="0.11" stop-color="#ebf5fc"/>
      <stop offset="0.13" stop-color="#daecf9"/>
      <stop offset="0.14" stop-color="#c4e1f5"/>
      <stop offset="0.15" stop-color="#a8d4f1"/>
      <stop offset="0.16" stop-color="#88c4ec"/>
      <stop offset="0.17" stop-color="#64b1e6"/>
      <stop offset="0.17" stop-color="#4ba5e2"/>
      <stop offset="0.18" stop-color="#4590c8"/>
      <stop offset="0.18" stop-color="#3f7eb2"/>
      <stop offset="0.19" stop-color="#3b70a1"/>
      <stop offset="0.2" stop-color="#386696"/>
      <stop offset="0.21" stop-color="#36618f"/>
      <stop offset="0.24" stop-color="#365f8d"/>
      <stop offset="0.34" stop-color="#376190"/>
      <stop offset="0.41" stop-color="#3c6699"/>
      <stop offset="0.45" stop-color="#416ba2"/>
      <stop offset="0.47" stop-color="#4879b3"/>
      <stop offset="0.5" stop-color="#538fce"/>
      <stop offset="0.53" stop-color="#5c9ed9"/>
      <stop offset="0.59" stop-color="#6dbaee"/>
      <stop offset="0.72" stop-color="#fff"/>
    </linearGradient>
    <linearGradient id="linear-gradient-4" x1="229.85" y1="616.27" x2="239.93" y2="613.58" gradientUnits="userSpaceOnUse">
      <stop offset="0" stop-color="#2f416e"/>
      <stop offset="0.02" stop-color="#395c8d"/>
      <stop offset="0.05" stop-color="#4073a7"/>
      <stop offset="0.07" stop-color="#4682b9"/>
      <stop offset="0.09" stop-color="#498cc3"/>
      <stop offset="0.12" stop-color="#4a8fc7"/>
      <stop offset="0.2" stop-color="#4fa8e3"/>
      <stop offset="0.21" stop-color="#73bae9"/>
      <stop offset="0.22" stop-color="#9dcfef"/>
      <stop offset="0.23" stop-color="#c1e0f5"/>
      <stop offset="0.24" stop-color="#dceef9"/>
      <stop offset="0.26" stop-color="#f0f7fd"/>
      <stop offset="0.27" stop-color="#fbfdfe"/>
      <stop offset="0.28" stop-color="#fff"/>
      <stop offset="0.37" stop-color="#4aace8"/>
      <stop offset="0.49" stop-color="#314270"/>
      <stop offset="0.56" stop-color="#4673aa"/>
      <stop offset="0.61" stop-color="#5698d5"/>
      <stop offset="0.74" stop-color="#51afe9"/>
    </linearGradient>
    <linearGradient id="linear-gradient-5" x1="229.81" y1="617.32" x2="236.88" y2="616.29" gradientUnits="userSpaceOnUse">
      <stop offset="0" stop-color="#fff"/>
      <stop offset="0.08" stop-color="#aedbf9"/>
      <stop offset="0.09" stop-color="#aad9f8"/>
      <stop offset="0.11" stop-color="#9ed3f5"/>
      <stop offset="0.12" stop-color="#8bc8f1"/>
      <stop offset="0.13" stop-color="#6fb9ea"/>
      <stop offset="0.15" stop-color="#4fa8e3"/>
      <stop offset="0.16" stop-color="#4a92cb"/>
      <stop offset="0.17" stop-color="#457db5"/>
      <stop offset="0.19" stop-color="#426da3"/>
      <stop offset="0.22" stop-color="#3f6197"/>
      <stop offset="0.25" stop-color="#3d5b90"/>
      <stop offset="0.32" stop-color="#3d598e"/>
      <stop offset="0.42" stop-color="#3e5b90"/>
      <stop offset="0.45" stop-color="#436296"/>
      <stop offset="0.47" stop-color="#4b6da0"/>
      <stop offset="0.49" stop-color="#577eb0"/>
      <stop offset="0.51" stop-color="#6694c3"/>
      <stop offset="0.53" stop-color="#79afdb"/>
      <stop offset="0.54" stop-color="#8ecdf6"/>
      <stop offset="0.57" stop-color="#bde2fa"/>
      <stop offset="0.6" stop-color="#fff"/>
      <stop offset="0.62" stop-color="#fafdfe"/>
      <stop offset="0.64" stop-color="#ebf6fc"/>
      <stop offset="0.67" stop-color="#d2ebf9"/>
      <stop offset="0.69" stop-color="#b0dbf5"/>
      <stop offset="0.72" stop-color="#84c7f0"/>
      <stop offset="0.74" stop-color="#4fafe9"/>
      <stop offset="0.75" stop-color="#48ace8"/>
      <stop offset="0.87" stop-color="#2e3b69"/>
      <stop offset="0.87" stop-color="#324878"/>
      <stop offset="0.9" stop-color="#3a659b"/>
      <stop offset="0.92" stop-color="#417cb6"/>
      <stop offset="0.95" stop-color="#468dca"/>
      <stop offset="0.97" stop-color="#4997d5"/>
      <stop offset="1" stop-color="#4a9ad9"/>
    </linearGradient>
    <linearGradient id="linear-gradient-6" x1="11.45" y1="10.03" x2="14.85" y2="5.95" gradientUnits="userSpaceOnUse">
      <stop offset="0" stop-color="#3d6397"/>
      <stop offset="0.08" stop-color="#528fce"/>
      <stop offset="0.13" stop-color="#518dcb"/>
      <stop offset="0.17" stop-color="#4d85c1"/>
      <stop offset="0.21" stop-color="#4778b1"/>
      <stop offset="0.24" stop-color="#3e669a"/>
      <stop offset="0.27" stop-color="#324e7d"/>
      <stop offset="0.29" stop-color="#2b406b"/>
      <stop offset="0.35" stop-color="#355586"/>
      <stop offset="0.42" stop-color="#3e689e"/>
      <stop offset="0.47" stop-color="#416fa7"/>
      <stop offset="0.68" stop-color="#45598e"/>
      <stop offset="0.84" stop-color="#506793"/>
      <stop offset="1" stop-color="#283762"/>
    </linearGradient>
    <linearGradient id="linear-gradient-7" x1="228.67" y1="618.15" x2="240.53" y2="609.53" gradientUnits="userSpaceOnUse">
      <stop offset="0" stop-color="#395687"/>
      <stop offset="0.14" stop-color="#2f416e"/>
      <stop offset="0.15" stop-color="#324b79"/>
      <stop offset="0.17" stop-color="#3a6496"/>
      <stop offset="0.2" stop-color="#478dc5"/>
      <stop offset="0.22" stop-color="#4fa8e3"/>
      <stop offset="0.24" stop-color="#79bdeb"/>
      <stop offset="0.26" stop-color="#afd9f5"/>
      <stop offset="0.28" stop-color="#d1eafb"/>
      <stop offset="0.29" stop-color="#def0fd"/>
      <stop offset="0.31" stop-color="#dbeffd"/>
      <stop offset="0.33" stop-color="#d3ebfb"/>
      <stop offset="0.34" stop-color="#c5e3f8"/>
      <stop offset="0.35" stop-color="#b1d9f5"/>
      <stop offset="0.36" stop-color="#96ccf0"/>
      <stop offset="0.37" stop-color="#76bcea"/>
      <stop offset="0.38" stop-color="#51a9e3"/>
      <stop offset="0.38" stop-color="#4fa8e3"/>
      <stop offset="0.39" stop-color="#4a98d0"/>
      <stop offset="0.41" stop-color="#417eb2"/>
      <stop offset="0.42" stop-color="#3a699a"/>
      <stop offset="0.44" stop-color="#365a89"/>
      <stop offset="0.46" stop-color="#33527f"/>
      <stop offset="0.49" stop-color="#324f7c"/>
      <stop offset="0.51" stop-color="#385c8d"/>
      <stop offset="0.55" stop-color="#4472ac"/>
      <stop offset="0.58" stop-color="#4b7fbe"/>
      <stop offset="0.6" stop-color="#4d84c5"/>
      <stop offset="0.74" stop-color="#54ace6"/>
      <stop offset="0.75" stop-color="#64b4e8"/>
      <stop offset="0.76" stop-color="#88c5ee"/>
      <stop offset="0.77" stop-color="#a8d5f2"/>
      <stop offset="0.79" stop-color="#c4e2f6"/>
      <stop offset="0.81" stop-color="#daedfa"/>
      <stop offset="0.83" stop-color="#ebf5fc"/>
      <stop offset="0.86" stop-color="#f6fbfe"/>
      <stop offset="0.9" stop-color="#fdfeff"/>
      <stop offset="1" stop-color="#fff"/>
    </linearGradient>
    <linearGradient id="linear-gradient-8" x1="5.73" y1="5.17" x2="10.14" y2="1.39" gradientUnits="userSpaceOnUse">
      <stop offset="0" stop-color="#53a0d9"/>
      <stop offset="0.07" stop-color="#456093"/>
      <stop offset="0.44" stop-color="#529cd9"/>
      <stop offset="1" stop-color="#3b6a9d"/>
    </linearGradient>
    <linearGradient id="linear-gradient-9" x1="0.12" y1="5.57" x2="6.9" y2="7.29" gradientUnits="userSpaceOnUse">
      <stop offset="0.14" stop-color="#4487c2"/>
      <stop offset="0.27" stop-color="#478dc8"/>
      <stop offset="0.45" stop-color="#519fd9"/>
      <stop offset="0.54" stop-color="#58abe5"/>
      <stop offset="0.96" stop-color="#9ad2f6"/>
      <stop offset="0.97" stop-color="#84c4ee"/>
      <stop offset="0.97" stop-color="#6eb6e6"/>
      <stop offset="0.98" stop-color="#5eade0"/>
      <stop offset="0.99" stop-color="#55a7dd"/>
      <stop offset="1" stop-color="#52a5dc"/>
    </linearGradient>
    <linearGradient id="linear-gradient-10" x1="6.17" y1="9.34" x2="-0.15" y2="6.42" gradientUnits="userSpaceOnUse">
      <stop offset="0" stop-color="#466097"/>
      <stop offset="0.02" stop-color="#466299"/>
      <stop offset="0.02" stop-color="#4867a0"/>
      <stop offset="0.03" stop-color="#4b72ab"/>
      <stop offset="0.03" stop-color="#4f80bc"/>
      <stop offset="0.03" stop-color="#528ac8"/>
      <stop offset="0.44" stop-color="#4670a6"/>
      <stop offset="0.66" stop-color="#4fb9f2"/>
      <stop offset="0.87" stop-color="#3f6298"/>
      <stop offset="1" stop-color="#4fa8e3"/>
    </linearGradient>
    <linearGradient id="linear-gradient-11" x1="3.86" y1="10.38" x2="5.41" y2="14.94" gradientUnits="userSpaceOnUse">
      <stop offset="0" stop-color="#5078b0"/>
      <stop offset="0.04" stop-color="#5cbcf2"/>
      <stop offset="0.74" stop-color="#65aae2"/>
      <stop offset="1" stop-color="#354777"/>
    </linearGradient>
    <linearGradient id="linear-gradient-12" x1="3.07" y1="15.89" x2="8.02" y2="11.81" gradientUnits="userSpaceOnUse">
      <stop offset="0.01" stop-color="#64baf0"/>
      <stop offset="0.09" stop-color="#61b4ea"/>
      <stop offset="0.21" stop-color="#59a3d9"/>
      <stop offset="0.34" stop-color="#4d87bc"/>
      <stop offset="0.46" stop-color="#3e679c"/>
      <stop offset="0.62" stop-color="#4982bb"/>
      <stop offset="0.84" stop-color="#87caf5"/>
      <stop offset="0.88" stop-color="#81c5f2"/>
      <stop offset="0.93" stop-color="#6fb5e8"/>
      <stop offset="1" stop-color="#529cd9"/>
    </linearGradient>
    <radialGradient id="radial-gradient" cx="233.93" cy="616.61" r="0.93" gradientTransform="translate(16.88 44.12) scale(0.93 0.93)" gradientUnits="userSpaceOnUse">
      <stop offset="0.16" stop-color="#529cd9"/>
      <stop offset="0.26" stop-color="#5095d1"/>
      <stop offset="0.42" stop-color="#4983bb"/>
      <stop offset="0.61" stop-color="#3e6498"/>
      <stop offset="0.74" stop-color="#354c7c"/>
    </radialGradient>
    <linearGradient id="linear-gradient-13" x1="13.79" y1="15.96" x2="8.84" y2="11.73" gradientUnits="userSpaceOnUse">
      <stop offset="0.31" stop-color="#3c5d91"/>
      <stop offset="0.64" stop-color="#385384"/>
      <stop offset="1" stop-color="#354c7c"/>
    </linearGradient>
    <linearGradient id="linear-gradient-14" x1="13.51" y1="16.06" x2="10.93" y2="9.72" gradientUnits="userSpaceOnUse">
      <stop offset="0" stop-color="#50a9e5"/>
      <stop offset="0.35" stop-color="#52aae6"/>
      <stop offset="0.55" stop-color="#5aafe8"/>
      <stop offset="0.7" stop-color="#68b8ed"/>
      <stop offset="0.83" stop-color="#7bc4f3"/>
      <stop offset="0.87" stop-color="#82c8f5"/>
      <stop offset="0.93" stop-color="#80c7f5"/>
      <stop offset="0.97" stop-color="#78c5f4"/>
      <stop offset="0.99" stop-color="#6ac0f3"/>
      <stop offset="1" stop-color="#66bff3"/>
    </linearGradient>
    <linearGradient id="linear-gradient-15" x1="10.56" y1="9.19" x2="17.05" y2="6.66" gradientUnits="userSpaceOnUse">
      <stop offset="0" stop-color="#529cd9"/>
      <stop offset="0.02" stop-color="#529edb"/>
      <stop offset="0.03" stop-color="#50a5e1"/>
      <stop offset="0.04" stop-color="#4eb0eb"/>
      <stop offset="0.04" stop-color="#4eb3ed"/>
      <stop offset="0.09" stop-color="#4ba8e1"/>
      <stop offset="0.17" stop-color="#428ac2"/>
      <stop offset="0.19" stop-color="#3f81b8"/>
      <stop offset="0.53" stop-color="#4383bd"/>
      <stop offset="0.64" stop-color="#4280b9"/>
      <stop offset="0.74" stop-color="#3f76ae"/>
      <stop offset="0.84" stop-color="#3b679c"/>
      <stop offset="0.93" stop-color="#345082"/>
      <stop offset="1" stop-color="#2e3b69"/>
    </linearGradient>
    <linearGradient id="linear-gradient-16" x1="9.81" y1="6.8" x2="16.86" y2="6.22" gradientUnits="userSpaceOnUse">
      <stop offset="0.01" stop-color="#529fdc"/>
      <stop offset="0.02" stop-color="#54a0dd"/>
      <stop offset="0.03" stop-color="#5ba5e0"/>
      <stop offset="0.03" stop-color="#66aee4"/>
      <stop offset="0.04" stop-color="#77baeb"/>
      <stop offset="0.04" stop-color="#7cbded"/>
      <stop offset="0.32" stop-color="#538dc4"/>
      <stop offset="0.47" stop-color="#427ab3"/>
      <stop offset="0.64" stop-color="#498ec8"/>
      <stop offset="0.86" stop-color="#50a3dd"/>
      <stop offset="1" stop-color="#53aae5"/>
    </linearGradient>
    <linearGradient id="linear-gradient-17" x1="7.89" y1="0.38" x2="10.39" y2="6.55" gradientUnits="userSpaceOnUse">
      <stop offset="0" stop-color="#7dc7f5"/>
      <stop offset="0.42" stop-color="#7bc5f3"/>
      <stop offset="0.58" stop-color="#75beed"/>
      <stop offset="0.68" stop-color="#69b3e3"/>
      <stop offset="0.77" stop-color="#59a2d4"/>
      <stop offset="0.85" stop-color="#448cc0"/>
      <stop offset="0.87" stop-color="#3d85ba"/>
      <stop offset="0.92" stop-color="#3f87bc"/>
      <stop offset="0.96" stop-color="#468fc4"/>
      <stop offset="0.98" stop-color="#529bd2"/>
      <stop offset="1" stop-color="#61abe3"/>
    </linearGradient>
  </defs>
  <title>star</title>
  <g>
    <path class="cls-2" d="M232.91,611.53l-5.92-.45,5,3.13-2.29,5.48,4.09-3.42a0.74,0.74,0,0,1,1,0l4.09,3.42-2.29-5.48,5-3.13-5.92.45-1.41-5.77Z" transform="translate(-225.89 -604.62)"/>
    <path class="cls-3" d="M240.83,611.35l-2.66.2-2.41.18a3.82,3.82,0,0,0-3.53,2.54l-0.9,2.09-1.18,2.76,2.6-2.76,0.92-1a4.36,4.36,0,0,1,1.72-1.17h0a4,4,0,0,1,1.14-.21l1.29-.79,0.37-.11-0.07-.07,1.29-.79h0l0.37-.11-0.07-.07Z" transform="translate(-225.89 -604.62)"/>
    <g class="cls-4">
      <g>
        <polygon class="cls-5" points="7.51 12.99 9.69 10.38 7.14 7.06 4.62 11.16 7.51 12.99"/>
        <polygon class="cls-6" points="7.52 12.99 9.68 10.38 7.13 7.08 4.63 11.15 7.52 12.99"/>
        <polygon class="cls-7" points="7.52 12.98 9.66 10.39 7.12 7.11 4.63 11.14 7.52 12.98"/>
        <polygon class="cls-8" points="7.52 12.97 9.65 10.39 7.11 7.14 4.64 11.14 7.52 12.97"/>
        <polygon class="cls-9" points="7.52 12.96 9.64 10.4 7.1 7.16 4.65 11.13 7.52 12.96"/>
        <polygon class="cls-10" points="7.52 12.96 9.63 10.41 7.09 7.19 4.66 11.13 7.52 12.96"/>
        <polygon class="cls-11" points="7.53 12.95 9.61 10.41 7.08 7.21 4.67 11.12 7.53 12.95"/>
        <polygon class="cls-12" points="7.53 12.94 9.6 10.42 7.07 7.24 4.68 11.11 7.53 12.94"/>
        <polygon class="cls-13" points="7.53 12.93 9.59 10.43 7.05 7.27 4.69 11.11 7.53 12.93"/>
        <polygon class="cls-14" points="7.53 12.92 9.57 10.43 7.04 7.29 4.69 11.1 7.53 12.92"/>
        <polygon class="cls-15" points="7.54 12.92 9.56 10.44 7.03 7.32 4.7 11.1 7.54 12.92"/>
        <polygon class="cls-16" points="7.54 12.91 9.55 10.44 7.02 7.35 4.71 11.09 7.54 12.91"/>
        <polygon class="cls-17" points="7.54 12.9 9.53 10.45 7.01 7.37 4.72 11.08 7.54 12.9"/>
        <polygon class="cls-18" points="7.54 12.89 9.52 10.46 7 7.4 4.73 11.08 7.54 12.89"/>
        <polygon class="cls-19" points="7.54 12.88 9.51 10.46 6.99 7.42 4.74 11.07 7.54 12.88"/>
        <polygon class="cls-20" points="7.54 12.88 9.49 10.47 6.98 7.45 4.74 11.06 7.54 12.88"/>
        <polygon class="cls-21" points="7.55 12.87 9.48 10.47 6.97 7.48 4.75 11.06 7.55 12.87"/>
        <polygon class="cls-22" points="7.55 12.86 9.47 10.48 6.96 7.5 4.76 11.05 7.55 12.86"/>
        <polygon class="cls-23" points="7.55 12.85 9.45 10.49 6.94 7.53 4.77 11.04 7.55 12.85"/>
        <polygon class="cls-24" points="7.55 12.85 9.44 10.49 6.93 7.56 4.78 11.04 7.55 12.85"/>
        <polygon class="cls-25" points="7.55 12.84 9.43 10.5 6.92 7.58 4.79 11.03 7.55 12.84"/>
        <polygon class="cls-26" points="7.56 12.83 9.41 10.51 6.91 7.61 4.79 11.03 7.56 12.83"/>
        <polygon class="cls-27" points="7.56 12.82 9.4 10.51 6.9 7.63 4.8 11.02 7.56 12.82"/>
        <polygon class="cls-28" points="7.56 12.82 9.39 10.52 6.89 7.66 4.81 11.01 7.56 12.82"/>
        <polygon class="cls-29" points="7.56 12.81 9.37 10.52 6.88 7.69 4.82 11.01 7.56 12.81"/>
        <polygon class="cls-30" points="7.57 12.8 9.36 10.53 6.87 7.71 4.83 11 7.57 12.8"/>
        <polygon class="cls-31" points="7.57 12.79 9.35 10.54 6.86 7.74 4.84 10.99 7.57 12.79"/>
        <polygon class="cls-32" points="7.57 12.79 9.33 10.54 6.84 7.77 4.84 10.99 7.57 12.79"/>
        <polygon class="cls-33" points="7.57 12.78 9.32 10.55 6.83 7.79 4.85 10.98 7.57 12.78"/>
        <polygon class="cls-34" points="7.57 12.77 9.31 10.55 6.82 7.82 4.86 10.98 7.57 12.77"/>
        <polygon class="cls-35" points="7.58 12.76 9.29 10.56 6.81 7.84 4.87 10.97 7.58 12.76"/>
        <polygon class="cls-36" points="7.58 12.75 9.28 10.57 6.8 7.87 4.88 10.96 7.58 12.75"/>
        <polygon class="cls-37" points="7.58 12.75 9.27 10.57 6.79 7.9 4.89 10.96 7.58 12.75"/>
        <polygon class="cls-38" points="7.58 12.74 9.25 10.58 6.78 7.92 4.89 10.95 7.58 12.74"/>
        <polygon class="cls-39" points="7.58 12.73 9.24 10.59 6.77 7.95 4.9 10.95 7.58 12.73"/>
        <polygon class="cls-40" points="7.59 12.72 9.23 10.59 6.76 7.98 4.91 10.94 7.59 12.72"/>
        <polygon class="cls-41" points="7.59 12.71 9.21 10.6 6.75 8 4.92 10.93 7.59 12.71"/>
        <polygon class="cls-42" points="7.59 12.71 9.2 10.6 6.74 8.03 4.93 10.93 7.59 12.71"/>
        <polygon class="cls-43" points="7.59 12.7 9.19 10.61 6.72 8.05 4.94 10.92 7.59 12.7"/>
        <polygon class="cls-44" points="7.59 12.69 9.17 10.62 6.71 8.08 4.95 10.91 7.59 12.69"/>
        <polygon class="cls-45" points="7.6 12.68 9.16 10.62 6.7 8.11 4.95 10.91 7.6 12.68"/>
        <polygon class="cls-46" points="7.6 12.68 9.15 10.63 6.69 8.13 4.96 10.9 7.6 12.68"/>
        <polygon class="cls-47" points="7.6 12.67 9.13 10.63 6.68 8.16 4.97 10.9 7.6 12.67"/>
        <polygon class="cls-48" points="7.6 12.66 9.12 10.64 6.67 8.19 4.98 10.89 7.6 12.66"/>
        <polygon class="cls-49" points="7.6 12.65 9.11 10.65 6.66 8.21 4.99 10.88 7.6 12.65"/>
        <polygon class="cls-50" points="7.61 12.64 9.09 10.65 6.65 8.24 5 10.88 7.61 12.64"/>
        <polygon class="cls-51" points="7.61 12.64 9.08 10.66 6.64 8.27 5 10.87 7.61 12.64"/>
        <polygon class="cls-52" points="7.61 12.63 9.07 10.66 6.63 8.29 5.01 10.86 7.61 12.63"/>
        <polygon class="cls-53" points="7.61 12.62 9.05 10.67 6.61 8.32 5.02 10.86 7.61 12.62"/>
        <polygon class="cls-54" points="5.03 10.85 7.61 12.61 9.03 10.69 6.59 8.35 5.03 10.85"/>
        <polygon class="cls-55" points="5.04 10.84 7.61 12.59 9.01 10.7 6.57 8.38 5.04 10.84"/>
        <polygon class="cls-56" points="5.05 10.84 7.61 12.58 8.99 10.72 6.55 8.41 5.05 10.84"/>
        <polygon class="cls-57" points="5.07 10.83 7.61 12.57 8.97 10.73 6.53 8.45 5.07 10.83"/>
        <polygon class="cls-58" points="5.08 10.82 7.61 12.55 8.95 10.75 6.51 8.48 5.08 10.82"/>
        <polygon class="cls-59" points="5.09 10.81 7.61 12.54 8.93 10.76 6.49 8.51 5.09 10.81"/>
        <polygon class="cls-60" points="5.1 10.81 7.61 12.53 8.91 10.78 6.47 8.54 5.1 10.81"/>
        <polygon class="cls-61" points="5.11 10.8 7.61 12.51 8.89 10.79 6.45 8.57 5.11 10.8"/>
        <polygon class="cls-62" points="5.12 10.79 7.61 12.5 8.87 10.81 6.43 8.61 5.12 10.79"/>
        <polygon class="cls-63" points="5.13 10.79 7.61 12.48 8.85 10.82 6.41 8.64 5.13 10.79"/>
        <polygon class="cls-64" points="5.14 10.78 7.61 12.47 8.83 10.84 6.39 8.67 5.14 10.78"/>
        <polygon class="cls-65" points="5.16 10.77 7.6 12.46 8.81 10.86 6.37 8.7 5.16 10.77"/>
        <polygon class="cls-66" points="5.17 10.77 7.6 12.44 8.79 10.87 6.35 8.74 5.17 10.77"/>
        <polygon class="cls-67" points="5.18 10.76 7.6 12.43 8.77 10.89 6.33 8.77 5.18 10.76"/>
        <polygon class="cls-68" points="5.19 10.75 7.6 12.41 8.75 10.9 6.31 8.8 5.19 10.75"/>
        <polygon class="cls-69" points="5.2 10.74 7.6 12.4 8.73 10.92 6.29 8.83 5.2 10.74"/>
        <polygon class="cls-70" points="5.21 10.74 7.6 12.39 8.71 10.93 6.27 8.86 5.21 10.74"/>
        <polygon class="cls-71" points="5.22 10.73 7.6 12.37 8.69 10.95 6.25 8.9 5.22 10.73"/>
        <polygon class="cls-72" points="5.23 10.72 7.6 12.36 8.67 10.96 6.23 8.93 5.23 10.72"/>
        <polygon class="cls-73" points="5.24 10.72 7.6 12.35 8.65 10.98 6.21 8.96 5.24 10.72"/>
        <polygon class="cls-74" points="5.26 10.71 7.6 12.33 8.63 10.99 6.19 8.99 5.26 10.71"/>
        <polygon class="cls-75" points="5.27 10.7 7.6 12.32 8.61 11.01 6.17 9.03 5.27 10.7"/>
        <polygon class="cls-76" points="5.28 10.69 7.6 12.3 8.58 11.02 6.15 9.06 5.28 10.69"/>
        <polygon class="cls-77" points="5.29 10.69 7.6 12.29 8.56 11.04 6.13 9.09 5.29 10.69"/>
        <polygon class="cls-78" points="5.3 10.68 7.6 12.28 8.54 11.05 6.11 9.12 5.3 10.68"/>
        <polygon class="cls-79" points="5.31 10.67 7.59 12.26 8.52 11.07 6.09 9.15 5.31 10.67"/>
        <polygon class="cls-80" points="5.32 10.67 7.59 12.25 8.5 11.08 6.07 9.19 5.32 10.67"/>
        <polygon class="cls-81" points="5.33 10.66 7.59 12.24 8.48 11.1 6.05 9.22 5.33 10.66"/>
        <polygon class="cls-82" points="5.34 10.65 7.59 12.22 8.46 11.12 6.03 9.25 5.34 10.65"/>
        <polygon class="cls-83" points="5.36 10.64 7.59 12.21 8.44 11.13 6.01 9.28 5.36 10.64"/>
        <polygon class="cls-84" points="5.37 10.64 7.59 12.2 8.42 11.15 5.99 9.31 5.37 10.64"/>
        <polygon class="cls-85" points="5.38 10.63 7.59 12.18 8.4 11.16 5.97 9.35 5.38 10.63"/>
        <polygon class="cls-86" points="5.39 10.62 7.59 12.17 8.38 11.18 5.95 9.38 5.39 10.62"/>
        <polygon class="cls-87" points="5.4 10.62 7.59 12.15 8.36 11.19 5.93 9.41 5.4 10.62"/>
        <polygon class="cls-88" points="7.59 12.14 8.34 11.21 5.91 9.44 5.41 10.61 7.59 12.14"/>
      </g>
    </g>
    <path class="cls-89" d="M239.76,612.13l-0.37.11h0l-3.38.25a3.62,3.62,0,0,0-3.24,2.2l-2.2,3.71h0l2.14-3.76a3.64,3.64,0,0,1,3.31-2.23Zm-3.45,1.12A3.67,3.67,0,0,0,233.2,615l-2.55,3.43h0l2.61-3.39a3.61,3.61,0,0,1,3-1.74l1.52-.11,0.37-.11Z" transform="translate(-225.89 -604.62)"/>
    <path class="cls-90" d="M230.64,618.44h0l2.5-3.47a3.75,3.75,0,0,1,3.11-1.79l1.87-.14,0.07,0.07-1.87.14A3.67,3.67,0,0,0,233.2,615Zm9-6.39-3.73.28a3.73,3.73,0,0,0-3.31,2.26l-2.09,3.8h0l2.14-3.76a3.64,3.64,0,0,1,3.31-2.23l3.73-.28-0.07-.07h0Z" transform="translate(-225.89 -604.62)"/>
    <path class="cls-91" d="M229.74,619.69l4.08-4.17a3.79,3.79,0,0,1,2.78-1.32l-0.07-.21a3.94,3.94,0,0,0-2.85,1.38l-3.53,3.73Z" transform="translate(-225.89 -604.62)"/>
    <polygon class="cls-92" points="14.94 6.73 13.8 7.44 13.87 7.51 13.51 7.62 13.51 7.62 12.22 8.41 12.29 8.48 11.93 8.59 10.64 9.38 10.71 9.59 15.76 6.46 14.94 6.73"/>
    <path class="cls-93" d="M230.15,619.12l2.08-4.84a3.82,3.82,0,0,1,3.53-2.54l5.07-.38,0.82-.27-5.92.45a4,4,0,0,0-3.7,2.66h0l-2.29,5.49Z" transform="translate(-225.89 -604.62)"/>
    <polygon class="cls-94" points="6.81 6.62 7.02 6.91 8.43 1.15 8.43 0 6.81 6.62"/>
    <polygon class="cls-95" points="6.81 6.62 7.02 6.91 1.1 6.46 0 6.1 6.81 6.62"/>
    <polygon class="cls-96" points="5.8 9.7 6.14 9.59 1.1 6.46 0 6.1 5.8 9.7"/>
    <polygon class="cls-97" points="5.8 9.7 6.14 9.59 3.85 15.07 3.21 16 5.8 9.7"/>
    <polygon class="cls-98" points="7.94 11.65 8.12 11.86 3.21 16 3.85 15.07 7.94 11.65"/>
    <path class="cls-99" d="M234.32,616.09a0.88,0.88,0,0,0-.49.18l0.18,0.21a0.47,0.47,0,0,1,.62,0l0.18-.21A0.88,0.88,0,0,0,234.32,616.09Z" transform="translate(-225.89 -604.62)"/>
    <polygon class="cls-100" points="8.91 11.65 8.74 11.86 13.65 16 13 15.07 8.91 11.65"/>
    <polygon class="cls-101" points="11.05 9.7 10.71 9.59 13 15.07 13.65 16 11.05 9.7"/>
    <polygon class="cls-102" points="11.05 9.7 10.71 9.59 15.76 6.46 16.86 6.1 11.05 9.7"/>
    <polygon class="cls-103" points="10.05 6.62 9.84 6.91 15.76 6.46 16.86 6.1 10.05 6.62"/>
    <polygon class="cls-104" points="10.05 6.62 9.84 6.91 8.43 1.15 8.43 0 10.05 6.62"/>
  </g>
</svg>
