<svg xmlns="http://www.w3.org/2000/svg" width="16" height="13" viewBox="0 0 16 13">
  <defs>
    <style>
      .cls-1 {
        fill: #2d88b5;
        fill-rule: evenodd;
      }
    </style>
  </defs>
  <path id="Forma_1" data-name="Forma 1" class="cls-1" d="M1326.86,366.868h-8.4a4.682,4.682,0,0,1,.14,1.139v9a4.267,4.267,0,0,1-.1.959h8.36a1.136,1.136,0,0,0,1.14-1.134v-8.816A1.147,1.147,0,0,0,1326.86,366.868Zm-4.99,9.841a0.611,0.611,0,1,1,0-1.221A0.611,0.611,0,0,1,1321.87,376.709Zm0-1.744a0.611,0.611,0,1,1,0-1.222A0.611,0.611,0,0,1,1321.87,374.965Zm0-1.745a0.611,0.611,0,1,1,0-1.221A0.611,0.611,0,0,1,1321.87,373.22Zm1.65,3.516a0.611,0.611,0,1,1,0-1.222A0.611,0.611,0,0,1,1323.52,376.736Zm0-1.745a0.611,0.611,0,1,1,0-1.221A0.611,0.611,0,0,1,1323.52,374.991Zm0-1.744a0.611,0.611,0,1,1,0-1.222A0.611,0.611,0,0,1,1323.52,373.247Zm1.68,3.489a0.611,0.611,0,1,1,0-1.222A0.611,0.611,0,0,1,1325.2,376.736Zm0-1.745a0.611,0.611,0,1,1,0-1.221A0.611,0.611,0,0,1,1325.2,374.991Zm0-1.744a0.611,0.611,0,1,1,0-1.222A0.611,0.611,0,0,1,1325.2,373.247Zm1.5-3.388a1.075,1.075,0,0,1-1.08,1.073h-4.16a1.075,1.075,0,0,1-1.08-1.073v-0.545a1.074,1.074,0,0,1,1.08-1.073h4.16a1.074,1.074,0,0,1,1.08,1.073v0.545Zm-13.4-2.991h-0.16a1.14,1.14,0,0,0-1.14,1.147v8.817a1.13,1.13,0,0,0,1.14,1.134h0.12a4.272,4.272,0,0,1-.11-0.96v-9A4.681,4.681,0,0,1,1313.3,366.868Zm3.11-.869h-1.06c-0.63,0-1.15.9-1.15,2.008v9c0,1.1.52,2,1.15,2h1.06c0.63,0,1.15-.894,1.15-2v-9C1317.56,366.9,1317.04,366,1316.41,366Z" transform="translate(-1312 -366)"/>
</svg>
